<?xml version="1.0" encoding="UTF-8"?>
<svg version="1.1" xmlns="http://www.w3.org/2000/svg" width="512" height="512">
<path d="M0 0 C0.97647289 0.48528695 1.95294578 0.9705739 2.95900875 1.47056651 C5.11193198 2.54260645 7.26094154 3.62253293 9.40648961 4.70925808 C12.97614166 6.5134855 16.55855581 8.29074924 20.14544487 10.06034088 C27.81772853 13.84955755 35.47559385 17.66737158 43.13193166 21.48868275 C46.30092241 23.06994195 49.47062678 24.6497679 52.6403287 26.22960094 C63.04676923 31.41636396 73.45099352 36.60756307 83.85454854 41.80011094 C86.56452086 43.15269035 89.27452656 44.50520283 91.98453832 45.85770321 C108.86484466 54.28239148 125.74429307 62.70879713 142.62178707 71.13911819 C146.50850178 73.0805014 150.39522747 75.02186262 154.28196716 76.9631958 C155.24778379 77.44559993 156.21360042 77.92800407 157.20868421 78.42502651 C172.90517036 86.26473906 188.60645864 94.09478489 204.30966228 101.92103186 C220.47408316 109.97735862 236.63396233 118.04273656 252.78949457 126.1168735 C261.84412693 130.64186135 270.90072638 135.16281173 279.96249199 139.67350006 C287.66418633 143.50720163 295.36176361 147.34901522 303.05407815 151.20150521 C306.97516736 153.16496169 310.89808693 155.12449902 314.82635498 157.07355881 C318.42523154 158.85929883 322.01834013 160.6561331 325.60727198 162.46177253 C326.90274002 163.11111516 328.20022915 163.75644542 329.49995803 164.39721695 C338.94005631 169.05523967 347.71511165 173.6534515 352.28709412 183.57452393 C352.76018005 184.56710205 353.23326599 185.55968018 353.72068787 186.58233643 C357.190059 195.39381883 356.39210832 203.82717803 352.84959412 212.44952393 C346.79213055 224.16816839 336.20622034 229.06613233 324.8193512 234.7253418 C323.39205542 235.44201377 321.96510734 236.15937857 320.53847587 236.87737203 C316.63448715 238.83962173 312.72559483 240.79191703 308.81578517 242.74253678 C304.59333279 244.85129132 300.37549267 246.96923534 296.1570282 249.08595276 C287.89911471 253.22764559 279.63685 257.36058397 271.3728999 261.49021664 C264.65564963 264.84705751 257.9398206 268.20672511 251.22498703 271.56839752 C250.26868319 272.04714463 249.31237935 272.52589174 248.3270966 273.01914634 C246.38428324 273.99176479 244.44147083 274.96438513 242.49865936 275.93700734 C224.28786559 285.05327522 206.07187285 294.15911551 187.85429011 303.26180711 C171.19188604 311.58783844 154.5360924 319.92699713 137.88336684 328.27236697 C120.77698037 336.84493511 103.66616572 345.40860266 86.55051887 353.9626677 C76.94432715 358.76385124 67.33992862 363.56854153 57.7401619 368.38256073 C49.56927863 372.47991256 41.3942477 376.56884041 33.21375455 380.64697424 C29.04140476 382.72725842 24.87106864 384.81133457 20.7058754 386.90591621 C16.8902799 388.82456526 13.06928195 390.73197726 9.24374364 392.63072041 C7.86352653 393.31818002 6.48530538 394.00966535 5.10936512 394.70564553 C-5.79888127 400.21883592 -15.8312777 404.17343957 -28.15040588 401.44952393 C-37.59877801 397.91831414 -44.60656168 392.55367554 -49.15040588 383.44952393 C-51.00759745 378.84550706 -51.5159078 374.61952999 -51.52540588 369.69952393 C-51.56794495 367.7272583 -51.56794495 367.7272583 -51.61134338 365.71514893 C-51.1084821 356.97214964 -46.02460795 349.03905606 -41.83790588 341.57452393 C-40.76519748 339.63502433 -39.69363844 337.69488872 -38.62306213 335.75421143 C-38.05861389 334.73295166 -37.49416565 333.71169189 -36.91261292 332.65948486 C-33.82222378 327.03016423 -30.80098612 321.36385044 -27.77540588 315.69952393 C-26.49841641 313.31131354 -25.22091898 310.92337503 -23.94337463 308.53546143 C-23.62700043 307.94398315 -23.31062622 307.35250488 -22.98466492 306.74310303 C-17.97158657 297.37355262 -12.92554778 288.02170542 -7.8842926 278.66729736 C-5.55579135 274.34602919 -3.2286249 270.02404298 -0.90162659 265.70196533 C0.2624047 263.54007703 1.42662882 261.37829253 2.59104919 259.21661377 C5.56112926 253.70247437 8.5282285 248.1867634 11.49021912 242.66827393 C12.69312605 240.42857346 13.89624831 238.18898863 15.09959412 235.94952393 C15.96717346 234.33485229 15.96717346 234.33485229 16.85227966 232.68756104 C20.80440163 225.34855 24.8159858 218.0452349 28.91893005 210.78936768 C32.05157639 205.21782844 33.53536904 200.87903818 32.84959412 194.44952393 C31.64151049 190.9907324 31.64151049 190.9907324 29.72459412 187.57452393 C29.37477478 186.90727295 29.02495544 186.24002197 28.66453552 185.55255127 C27.4105314 183.17506937 26.13038695 180.81267691 24.84959412 178.44952393 C23.79675727 176.48117678 22.74472176 174.51240088 21.69334412 172.54327393 C18.71118567 166.97321428 15.70635412 161.41566614 12.6962738 155.86065674 C9.73762608 150.39552904 6.79415444 144.92225047 3.84959412 139.44952393 C2.68300516 137.28281542 1.51633837 135.11614881 0.34959412 132.94952393 C-6.65040588 119.94952393 -13.65040588 106.94952393 -20.65040588 93.94952393 C-21.22863098 92.87573486 -21.80685608 91.8019458 -22.40260315 90.69561768 C-23.56213996 88.54207648 -24.72148432 86.38843166 -25.88063049 84.23468018 C-28.58544424 79.20955119 -31.2920268 74.18540692 -34.00578308 69.1651001 C-34.96007317 67.39949221 -35.91364056 65.63349378 -36.86720276 63.86749268 C-38.05866122 61.66108812 -39.25128536 59.45531245 -40.44532776 57.25030518 C-54.00784601 32.12022984 -54.00784601 32.12022984 -50.46681213 16.41827393 C-46.86387081 6.73069725 -40.44980945 0.77546869 -31.15040588 -3.55047607 C-20.14579177 -7.32843808 -10.06400675 -5.19546823 0 0 Z M-17.15040588 29.44952393 C-11.89144888 40.07824539 -6.48348514 50.61266975 -0.90040588 61.07452393 C-0.15053271 62.48303344 0.59930395 63.8915624 1.34910583 65.30010986 C5.98088384 73.99213736 10.66204463 82.65591336 15.39598083 91.29278564 C19.38266005 98.57169027 23.31043884 105.88140876 27.22459412 113.19952393 C27.54041443 113.78991455 27.85623474 114.38030518 28.18162537 114.98858643 C28.8196891 116.18137496 29.45775062 117.37416467 30.09580994 118.56695557 C30.41158997 119.15726562 30.72737 119.74757568 31.05271912 120.35577393 C31.36882141 120.94672852 31.68492371 121.53768311 32.01060486 122.14654541 C35.32227744 128.3360729 38.64670948 134.51870156 41.97459412 140.69952393 C42.54194275 141.75389648 43.10929138 142.80826904 43.6938324 143.89459229 C46.63104588 149.34851894 49.57994059 154.79578646 52.54490662 160.23468018 C53.14158142 161.33070557 53.73825623 162.42673096 54.35301208 163.55596924 C55.48762184 165.63867756 56.62453656 167.72013244 57.7641449 169.80010986 C58.27187439 170.73242432 58.77960388 171.66473877 59.30271912 172.62530518 C59.74776794 173.43910645 60.19281677 174.25290771 60.65135193 175.09136963 C61.87421148 177.49797118 62.86227773 179.93871327 63.84959412 182.44952393 C64.80093231 182.45316956 65.75227051 182.45681519 66.73243713 182.46057129 C75.70761943 182.49754809 84.68245946 182.55535001 93.65738106 182.63342667 C98.27127102 182.67289865 102.88497021 182.70508845 107.49900818 182.72052002 C111.95369688 182.73568851 116.40786111 182.77013725 120.86231613 182.81783295 C122.55987356 182.8326448 124.25750588 182.84056483 125.95512772 182.84140778 C128.33734487 182.84377986 130.71811542 182.87087649 133.1000824 182.90362549 C133.79851761 182.89859512 134.49695282 182.89356476 135.21655273 182.88838196 C140.1863727 182.99376251 143.00633844 184.36081536 146.84959412 187.44952393 C150.9058981 192.6721225 150.62356955 198.10292535 149.84959412 204.44952393 C147.67125785 209.04823382 145.3819602 211.25002815 140.84959412 213.44952393 C138.22542484 213.74639755 135.83547358 213.88725658 133.21360779 213.88189697 C132.08597519 213.89718445 132.08597519 213.89718445 130.93556213 213.91278076 C128.46281938 213.94285749 125.99046434 213.95216833 123.51756287 213.96124268 C121.79833697 213.97809335 120.07912337 213.99624412 118.35992432 214.01564026 C113.84398743 214.06310435 109.32810039 214.09293688 104.81199646 214.11907959 C100.20007994 214.14890326 95.58833507 214.19542739 90.97654724 214.24053955 C81.93431939 214.32653177 72.89205618 214.3938952 63.84959412 214.44952393 C63.30671753 215.53699921 62.76384094 216.62447449 62.20451355 217.74490356 C61.48173094 219.19186186 60.75893137 220.63881169 60.03611755 222.08575439 C59.67956085 222.80011154 59.32300415 223.51446869 58.9556427 224.25047302 C56.05638228 230.05294155 53.10482086 235.8261511 50.09959412 241.57452393 C49.59210632 242.54623535 49.08461853 243.51794678 48.56175232 244.519104 C44.63920987 252.00187543 40.61943859 259.42814306 36.55711365 266.83575439 C32.48440025 274.26632489 28.47030591 281.72730773 24.47459412 289.19952393 C23.19730559 291.5875743 21.91995847 293.97559332 20.64256287 296.36358643 C20.32622894 296.95499924 20.00989502 297.54641205 19.68397522 298.15574646 C16.39586741 304.30118745 13.09269226 310.43847831 9.78709412 316.57452393 C9.21942322 317.62881592 8.65175232 318.68310791 8.06687927 319.76934814 C5.07368626 325.32692212 2.07563999 330.8818284 -0.92774963 336.43389893 C-1.55093079 337.58744873 -2.17411194 338.74099854 -2.81617737 339.92950439 C-3.99512981 342.11165701 -5.17551206 344.29303808 -6.35768127 346.47344971 C-10.09648121 353.39773174 -13.67078097 360.39152798 -17.15040588 367.44952393 C-12.97387731 366.14312418 -9.13893856 364.56831424 -5.22715187 362.61094475 C-4.05871825 362.02871899 -2.89028463 361.44649322 -1.68644392 360.84662426 C-0.39921828 360.20015876 0.88797007 359.55361899 2.17512512 358.90701294 C3.54956656 358.22022842 4.9241838 357.53379562 6.29896128 356.84768403 C10.07253234 354.96313374 13.84359178 353.07360569 17.61426044 351.18325639 C21.68227506 349.14493086 25.75260038 347.11122931 29.82264709 345.07696533 C36.87274894 341.55243877 43.92138004 338.02498554 50.96902084 334.49554062 C61.1587307 329.39255886 71.35064658 324.29399631 81.54310639 319.19650985 C98.07961542 310.92606668 114.61433474 302.65205198 131.14793396 294.37579346 C147.20884556 286.33615873 163.27059648 278.29820478 179.33348083 270.26251221 C180.32358703 269.76719639 181.31369322 269.27188057 182.33380263 268.76155518 C187.30087671 266.2767131 192.26796733 263.79190408 197.23506618 261.3071115 C238.4424741 240.69304073 279.64698 220.07317452 320.84959412 199.44952393 C320.84959412 198.78952393 320.84959412 198.12952393 320.84959412 197.44952393 C278.08156217 176.04264151 235.31143679 154.639947 192.53848196 133.24290252 C187.49389607 130.7193588 182.4493276 128.19578025 177.4047699 125.67218018 C176.40044795 125.16975689 175.39612601 124.66733361 174.36137007 124.14968538 C158.07889221 116.00408981 141.79782895 107.85567067 125.51728262 99.70621538 C108.82394649 91.35021061 92.12910332 82.99722288 75.43284404 74.64706039 C65.12238591 69.49045614 54.81312422 64.3314749 44.50535892 59.16948986 C37.44611665 55.63460106 30.38541867 52.10263196 23.32354702 48.572999 C19.24339026 46.53356397 15.16390883 44.49280613 11.08614349 42.44859314 C7.35852307 40.57994563 3.62910391 38.71494238 -0.10182728 36.85291433 C-1.45652606 36.17599031 -2.81053864 35.49769106 -4.16381834 34.81793451 C-5.99300137 33.89937293 -7.82485921 32.98614349 -9.6568737 32.07324219 C-10.67680251 31.56289806 -11.69673132 31.05255394 -12.74756706 30.52674484 C-15.01569551 29.31316286 -15.01569551 29.31316286 -17.15040588 29.44952393 Z " fill="#000000" transform="translate(105.15040588378906,57.55047607421875)"/>
</svg>
