<?xml version="1.0" encoding="UTF-8"?>
<svg version="1.1" xmlns="http://www.w3.org/2000/svg" width="512" height="512">
<path d="M0 0 C1.41044654 -0.00571385 2.82088847 -0.012682 4.23132324 -0.02079773 C8.03273324 -0.03862374 11.83391112 -0.03758193 15.63535023 -0.03185534 C18.8165233 -0.02875084 21.9976526 -0.03486927 25.17881942 -0.04089409 C32.68240157 -0.05490037 40.18586973 -0.05340811 47.68945312 -0.04199219 C55.42065965 -0.0304897 63.15152014 -0.04463104 70.88268113 -0.07138866 C77.53602479 -0.09355036 84.18925983 -0.10018274 90.84263778 -0.09431225 C94.80993312 -0.09094561 98.77700618 -0.09333928 102.74427032 -0.11056328 C106.47092184 -0.12604013 110.19705952 -0.12206931 113.9236908 -0.10325813 C115.93825075 -0.09782285 117.95283384 -0.11207695 119.96734619 -0.12695312 C130.90419203 -0.03772851 130.90419203 -0.03772851 135.74121094 4.40405273 C136.97762329 5.52021973 136.97762329 5.52021973 138.23901367 6.65893555 C139.44473022 7.87081543 139.44473022 7.87081543 140.67480469 9.10717773 C141.57134766 10.0056543 142.46789062 10.90413086 143.39160156 11.82983398 C144.7712207 13.22782227 144.7712207 13.22782227 146.17871094 14.65405273 C147.5525293 16.02883789 147.5525293 16.02883789 148.95410156 17.43139648 C152.78829594 21.29036312 156.55006411 25.15910989 160.10668945 29.27612305 C163.5632207 33.25344709 167.21022397 36.98575392 170.95996094 40.68530273 C171.62153198 41.34308716 172.28310303 42.00087158 172.96472168 42.67858887 C175.05443829 44.75622547 177.14738409 46.830559 179.24121094 48.90405273 C182.00462794 51.64063424 184.76454816 54.38067537 187.52246094 57.12280273 C188.14245972 57.73450317 188.7624585 58.34620361 189.40124512 58.97644043 C192.47185041 62.03007076 195.41773693 65.13714932 198.24829102 68.41552734 C201.60680075 72.3028559 205.17189758 75.91507072 208.84667969 79.50170898 C210.17313697 80.81066462 211.49930025 82.11991824 212.82519531 83.42944336 C214.8824172 85.45567039 216.94189158 87.47943913 219.0065918 89.49804688 C221.02265316 91.47159444 223.0289857 93.45462872 225.03417969 95.43920898 C225.64778854 96.03419693 226.2613974 96.62918488 226.89360046 97.24220276 C227.47132706 97.81647507 228.04905365 98.39074738 228.64428711 98.98242188 C229.14723801 99.47569473 229.6501889 99.96896759 230.16838074 100.47718811 C235.07762724 106.49147587 236.33067459 110.95922823 236.24914551 118.55509949 C236.25850545 119.90506837 236.25850545 119.90506837 236.26805449 121.28230935 C236.28396213 124.28694572 236.2713886 127.2907683 236.25878906 130.29541016 C236.26421135 132.45428947 236.27133461 134.61316508 236.2800293 136.77203369 C236.29825816 142.62976846 236.2911953 148.48722126 236.27851295 154.34496093 C236.26837663 160.48261121 236.277781 166.62023755 236.28405762 172.75788879 C236.2913349 183.07008183 236.28174698 193.3821603 236.26269531 203.69433594 C236.24095537 215.59869318 236.24795683 227.50277608 236.27000093 239.40712661 C236.28818702 249.63924155 236.29069669 259.87127416 236.28024626 270.10340005 C236.27402527 276.20929569 236.27313674 282.31506267 236.28639221 288.42094994 C236.29799568 294.16746137 236.28984277 299.9136215 236.26681519 305.66009521 C236.26155085 307.76266714 236.2630026 309.86526891 236.27186584 311.96782875 C236.34000333 329.78205069 233.94174398 342.66712796 221.42871094 356.15405273 C210.55408957 366.4461051 198.66263543 368.90777935 184.11621094 368.59155273 C182.92125 368.57801758 181.72628906 368.56448242 180.49511719 368.55053711 C177.57666293 368.51551566 174.65918746 368.46640266 171.74121094 368.40405273 C171.7621582 369.61351562 171.78310547 370.82297852 171.8046875 372.0690918 C171.87775934 376.6090077 171.92325211 381.14887298 171.9609375 385.68920898 C171.98090133 387.64437639 172.00808229 389.59948528 172.04296875 391.55444336 C172.35654258 409.59416163 170.09946313 422.49713351 157.42871094 436.15405273 C144.45463197 448.43309176 130.19335487 448.85006672 113.33544922 448.80810547 C111.26479729 448.81381386 109.1941485 448.82077993 107.12350464 448.8289032 C101.52011836 448.84679834 95.916889 448.84567298 90.31348276 448.83996081 C85.62677162 448.83686352 80.94009039 448.84296747 76.25338352 448.84899956 C65.19217163 448.86303139 54.13103699 448.86149481 43.06982422 448.85009766 C31.67834684 448.8386192 20.28710496 448.85269073 8.89565861 448.87949413 C-0.90339239 448.90168304 -10.70236965 448.90828126 -20.50144398 448.90241772 C-26.34573516 448.89905442 -32.18987542 448.90142151 -38.03414536 448.91866875 C-43.53199217 448.93418648 -49.02949135 448.93012868 -54.52732468 448.9113636 C-56.53798864 448.90769102 -58.54867865 448.9107471 -60.55931854 448.92124939 C-78.07374281 449.00570618 -90.76813386 446.37609936 -104.00878906 434.09155273 C-113.79034489 423.75632393 -116.72238748 412.07729606 -116.64646912 398.19680786 C-116.65185465 397.00433311 -116.65724019 395.81185837 -116.66278893 394.58324802 C-116.6745578 391.29964056 -116.67302684 388.016362 -116.66562212 384.73275208 C-116.66087067 381.18117605 -116.6734177 377.62965319 -116.68363953 374.07809448 C-116.70079448 367.13042914 -116.7016744 360.18285437 -116.69642662 353.23517336 C-116.69237741 347.58523845 -116.69383738 341.93533022 -116.69917488 336.28539658 C-116.6999233 335.47981067 -116.70067173 334.67422476 -116.70144283 333.84422716 C-116.70297438 332.20742727 -116.70451273 330.57062738 -116.70605779 328.9338275 C-116.71977096 313.60033843 -116.71435355 298.26690044 -116.70287258 282.93341254 C-116.69294209 268.92267489 -116.70587978 254.91206934 -116.72980677 240.90135206 C-116.75422203 226.49556572 -116.76379965 212.08984084 -116.75715405 197.68403423 C-116.75366713 189.60410716 -116.75585892 181.52428164 -116.77340508 173.44437027 C-116.78815747 166.56597415 -116.78872301 159.68775109 -116.77133416 152.80935825 C-116.76284652 149.30398251 -116.76061919 145.79891551 -116.77598572 142.29355621 C-116.7892146 138.48383672 -116.7776295 134.67494912 -116.75999451 130.86526489 C-116.76959951 129.77088328 -116.77920452 128.67650168 -116.78910059 127.54895699 C-116.6562787 113.54342766 -111.36760683 102.80863344 -101.94628906 92.65405273 C-91.07166769 82.36200037 -79.18021356 79.90032611 -64.63378906 80.21655273 C-63.43882812 80.23008789 -62.24386719 80.24362305 -61.01269531 80.25756836 C-58.09424106 80.29258981 -55.17676558 80.34170281 -52.25878906 80.40405273 C-52.27973633 79.19458984 -52.30068359 77.98512695 -52.32226562 76.73901367 C-52.39533747 72.19909777 -52.44083023 67.65923249 -52.47851562 63.11889648 C-52.49847946 61.16372907 -52.52566042 59.20862019 -52.56054688 57.25366211 C-52.87412071 39.21394384 -50.61704126 26.31097196 -37.94628906 12.65405273 C-26.90220029 2.20161158 -14.73888487 -0.05099368 0 0 Z M-16.19628906 38.15405273 C-19.85963929 43.92660461 -20.50828193 49.34219021 -20.45410156 56.08764648 C-20.45127167 56.78801529 -20.44844177 57.48838409 -20.44552612 58.2099762 C-20.43443791 60.42068443 -20.40935609 62.63096944 -20.38378906 64.84155273 C-20.37374452 66.35131246 -20.36462126 67.86107861 -20.35644531 69.37084961 C-20.3345362 73.04871871 -20.30008664 76.72634433 -20.25878906 80.40405273 C-18.66265274 80.40952118 -18.66265274 80.40952118 -17.03427124 80.4151001 C-6.99954727 80.45206314 3.03487019 80.50985024 13.06936073 80.58795547 C18.2280567 80.62744173 23.38658168 80.65962464 28.54541016 80.67504883 C33.52526486 80.69020775 38.5046495 80.72463995 43.48429489 80.77236176 C45.38281541 80.7871834 47.28140304 80.7950942 49.17998123 80.79593658 C51.84233797 80.79830564 54.50339502 80.82537972 57.16552734 80.8581543 C57.9481192 80.85312393 58.73071106 80.84809357 59.53701782 80.84291077 C67.04667741 80.98566994 71.27380283 84.67822887 76.45605469 89.88842773 C77.30748047 90.74178711 78.15890625 91.59514648 79.03613281 92.47436523 C79.90818359 93.35866211 80.78023438 94.24295898 81.67871094 95.15405273 C82.54689453 96.02288086 83.41507812 96.89170898 84.30957031 97.78686523 C88.02066599 101.52320646 91.65009359 105.27697847 95.09301758 109.26245117 C98.55459573 113.24386183 102.20567138 116.98126226 105.95996094 120.68530273 C106.62153198 121.34308716 107.28310303 122.00087158 107.96472168 122.67858887 C110.05443829 124.75622547 112.14738409 126.830559 114.24121094 128.90405273 C117.00462794 131.64063424 119.76454816 134.38067537 122.52246094 137.12280273 C123.14245972 137.73450317 123.7624585 138.34620361 124.40124512 138.97644043 C127.47185041 142.03007076 130.41773693 145.13714932 133.24829102 148.41552734 C136.60680075 152.3028559 140.17189758 155.91507072 143.84667969 159.50170898 C145.17313697 160.81066462 146.49930025 162.11991824 147.82519531 163.42944336 C149.8824172 165.45567039 151.94189158 167.47943913 154.0065918 169.49804688 C156.02265316 171.47159444 158.0289857 173.45462872 160.03417969 175.43920898 C160.95459297 176.3316909 160.95459297 176.3316909 161.89360046 177.24220276 C162.47132706 177.81647507 163.04905365 178.39074738 163.64428711 178.98242188 C164.14723801 179.47569473 164.6501889 179.96896759 165.16838074 180.47718811 C171.31237984 188.0041637 171.32502208 194.18967868 171.28710938 203.69287109 C171.29585253 205.1421723 171.3063409 206.59146386 171.31843567 208.04074097 C171.3462258 211.95970022 171.34970191 215.87834342 171.34871578 219.79738688 C171.35185092 223.89873325 171.37748161 227.99993854 171.4006958 232.10121155 C171.44121339 239.86061502 171.46158651 247.61993455 171.47466969 255.37942749 C171.49055414 264.21625625 171.52897583 273.05294243 171.56926298 281.88968837 C171.65160384 300.06109805 171.70573224 318.23249417 171.74121094 336.40405273 C174.29989586 336.43455586 176.85821256 336.45680785 179.41699219 336.47436523 C180.13665161 336.4837915 180.85631104 336.49321777 181.59777832 336.50292969 C187.74272828 336.53452326 193.38575108 336.14489866 198.31933594 332.11499023 C203.52979976 326.51523888 204.04020323 319.56817413 203.98171997 312.27320862 C203.98342882 311.48318559 203.98513767 310.69316256 203.9868983 309.87919945 C203.99017716 307.24749729 203.97921612 304.61605344 203.96826172 301.984375 C203.96769726 300.09174099 203.96801485 298.19910654 203.96914673 296.30647278 C203.96971988 291.17891313 203.9579716 286.0514473 203.94399881 280.92390943 C203.93148522 275.56141465 203.93032046 270.19891765 203.927948 264.83641052 C203.92173509 254.6864067 203.90532679 244.53644603 203.88524902 234.3864612 C203.86288417 222.82908828 203.85189511 211.27171329 203.84185815 199.71432412 C203.82096042 175.94420975 203.78578808 152.17413366 203.74121094 128.40405273 C203.04122986 128.4004071 202.34124878 128.39676147 201.62005615 128.39300537 C194.97183185 128.35488775 188.3240608 128.29777071 181.67617416 128.22014999 C178.25968462 128.18090667 174.84344386 128.14860669 171.42675781 128.13305664 C167.48437527 128.1147919 163.54268165 128.06474067 159.60058594 128.01342773 C158.39384216 128.0121991 157.18709839 128.01097046 155.94378662 128.00970459 C142.29661019 127.77777816 131.47059078 123.71232401 121.51855469 114.30249023 C111.0540197 103.23159902 108.4657224 91.81923619 108.32714844 77.03295898 C108.29809921 75.11676003 108.29809921 75.11676003 108.26846313 73.16184998 C108.21898087 69.78684743 108.17764022 66.41194887 108.14031982 63.0368042 C108.10011352 59.58425308 108.04909756 56.13186296 107.99902344 52.67944336 C107.90317854 45.92108379 107.81807359 39.16265341 107.74121094 32.40405273 C93.29369722 32.33382719 78.84621016 32.28119816 64.39856052 32.24861622 C57.68955832 32.23317783 50.98066245 32.21214668 44.27172852 32.17773438 C37.79430452 32.14508063 31.31699086 32.12718689 24.83949089 32.11942101 C22.37121787 32.11388834 19.90295072 32.10308443 17.43472481 32.08686256 C13.97108144 32.06500886 10.50789095 32.0620892 7.04418945 32.06347656 C6.02926422 32.05269073 5.01433899 32.04190491 3.96865845 32.03079224 C-3.22306734 32.06185629 -11.0538888 32.53182933 -16.19628906 38.15405273 Z M139.74121094 57.40405273 C139.65304189 61.04972987 139.60043146 64.69512748 139.55371094 68.34155273 C139.52857422 69.36313477 139.5034375 70.3847168 139.47753906 71.43725586 C139.41252683 78.22019903 139.56855056 85.46084575 144.0168457 90.98950195 C150.68677333 97.10608735 158.70887779 96.67232903 167.17871094 96.52905273 C168.19642578 96.5200293 169.21414063 96.51100586 170.26269531 96.50170898 C172.75578249 96.47829972 175.24836953 96.44550974 177.74121094 96.40405273 C168.47785905 85.4506109 158.55183251 75.12498379 148.42871094 64.96655273 C147.68129639 64.2145459 146.93388184 63.46253906 146.16381836 62.68774414 C145.4713501 61.99729004 144.77888184 61.30683594 144.06542969 60.59545898 C143.44756592 59.97872314 142.82970215 59.3619873 142.19311523 58.7265625 C140.94532058 57.29182 140.94532058 57.29182 139.74121094 57.40405273 Z M-80.19628906 118.15405273 C-84.57028246 125.04640597 -84.54858581 131.56663934 -84.51948547 139.51144409 C-84.52331102 140.62180122 -84.52713657 141.73215834 -84.53107804 142.87616265 C-84.54138702 146.59237615 -84.53741981 150.30843455 -84.53344727 154.0246582 C-84.5377949 156.69086213 -84.54291386 159.35705474 -84.54893494 162.02325439 C-84.5616711 168.51109843 -84.56347697 174.99890105 -84.56113467 181.48675548 C-84.5593501 186.76159253 -84.56110414 192.03641704 -84.56535912 197.31125259 C-84.5659543 198.06260392 -84.56654949 198.81395524 -84.56716272 199.58807478 C-84.5683745 201.11455646 -84.56958863 202.64103814 -84.5708051 204.16751982 C-84.58167651 218.47652857 -84.57952006 232.78551373 -84.57342025 247.0945238 C-84.56825173 260.17627797 -84.5795055 273.25795767 -84.59851847 286.33969711 C-84.61790449 299.78146673 -84.62615151 313.22320113 -84.62239522 326.66498482 C-84.62048429 334.20773083 -84.62296008 341.75041345 -84.63710976 349.29314804 C-84.64903429 355.71457099 -84.65041648 362.13589154 -84.63831959 368.55731593 C-84.6324383 371.83138736 -84.63294383 375.10523332 -84.64332199 378.37929916 C-84.65377633 381.93393734 -84.6456986 385.4880739 -84.63301086 389.04269409 C-84.64038515 390.07004162 -84.64775943 391.09738914 -84.65535718 392.15586841 C-84.60656247 398.66327744 -84.2267565 405.70676626 -79.98388368 410.99224079 C-74.35304077 416.14293656 -67.48521035 416.70302165 -60.18850708 416.66474915 C-59.40483415 416.66857469 -58.62116121 416.67240024 -57.81374061 416.67634171 C-55.20306888 416.6866124 -52.59261953 416.68269091 -49.98193359 416.67871094 C-48.10390012 416.68306071 -46.22586843 416.68824474 -44.34783936 416.69419861 C-39.25688279 416.7075716 -34.16600055 416.70816914 -29.07502985 416.70563531 C-24.82063892 416.7045644 -20.56626295 416.70945205 -16.31187522 416.71424073 C-6.27252128 416.72533013 3.76679524 416.72577656 13.80615234 416.71972656 C24.15297057 416.71368702 34.4996528 416.72599864 44.84644783 416.74729663 C53.73923383 416.76492664 62.63197661 416.77091176 71.52477944 416.76765889 C76.83188394 416.76584806 82.13889144 416.76846224 87.44598007 416.78237343 C92.43813108 416.79496981 97.43007048 416.79299048 102.42221832 416.77996254 C104.25030973 416.77760113 106.0784161 416.7803158 107.90649033 416.78858566 C121.86972127 417.41564132 121.86972127 417.41564132 134.30137444 412.1291399 C139.52844855 406.5310962 140.04027248 399.5768119 139.98171997 392.27320862 C139.98342882 391.48318559 139.98513767 390.69316256 139.9868983 389.87919945 C139.99017716 387.24749729 139.97921612 384.61605344 139.96826172 381.984375 C139.96769726 380.09174099 139.96801485 378.19910654 139.96914673 376.30647278 C139.96971988 371.17891313 139.9579716 366.0514473 139.94399881 360.92390943 C139.93148522 355.56141465 139.93032046 350.19891765 139.927948 344.83641052 C139.92173509 334.6864067 139.90532679 324.53644603 139.88524902 314.3864612 C139.86288417 302.82908828 139.85189511 291.27171329 139.84185815 279.71432412 C139.82096042 255.94420975 139.78578808 232.17413366 139.74121094 208.40405273 C139.04122986 208.4004071 138.34124878 208.39676147 137.62005615 208.39300537 C130.97183185 208.35488775 124.3240608 208.29777071 117.67617416 208.22014999 C114.25968462 208.18090667 110.84344386 208.14860669 107.42675781 208.13305664 C103.48437527 208.1147919 99.54268165 208.06474067 95.60058594 208.01342773 C94.39384216 208.0121991 93.18709839 208.01097046 91.94378662 208.00970459 C78.29661019 207.77777816 67.47059078 203.71232401 57.51855469 194.30249023 C47.0540197 183.23159902 44.4657224 171.81923619 44.32714844 157.03295898 C44.29809921 155.11676003 44.29809921 155.11676003 44.26846313 153.16184998 C44.21898087 149.78684743 44.17764022 146.41194887 44.14031982 143.0368042 C44.10011352 139.58425308 44.04909756 136.13186296 43.99902344 132.67944336 C43.90317854 125.92108379 43.81807359 119.16265341 43.74121094 112.40405273 C29.29369722 112.33382719 14.84621016 112.28119816 0.39856052 112.24861622 C-6.31044168 112.23317783 -13.01933755 112.21214668 -19.72827148 112.17773438 C-26.20569548 112.14508063 -32.68300914 112.12718689 -39.16050911 112.11942101 C-41.62878213 112.11388834 -44.09704928 112.10308443 -46.56527519 112.08686256 C-50.02891856 112.06500886 -53.49210905 112.0620892 -56.95581055 112.06347656 C-57.97073578 112.05269073 -58.98566101 112.04190491 -60.03134155 112.03079224 C-67.22306734 112.06185629 -75.0538888 112.53182933 -80.19628906 118.15405273 Z M75.74121094 137.40405273 C75.65304189 141.04972987 75.60043146 144.69512748 75.55371094 148.34155273 C75.52857422 149.36313477 75.5034375 150.3847168 75.47753906 151.43725586 C75.41252683 158.22019903 75.56855056 165.46084575 80.0168457 170.98950195 C86.68677333 177.10608735 94.70887779 176.67232903 103.17871094 176.52905273 C104.19642578 176.5200293 105.21414063 176.51100586 106.26269531 176.50170898 C108.75578249 176.47829972 111.24836953 176.44550974 113.74121094 176.40405273 C104.47785905 165.4506109 94.55183251 155.12498379 84.42871094 144.96655273 C83.68129639 144.2145459 82.93388184 143.46253906 82.16381836 142.68774414 C81.4713501 141.99729004 80.77888184 141.30683594 80.06542969 140.59545898 C79.44756592 139.97872314 78.82970215 139.3619873 78.19311523 138.7265625 C76.94532058 137.29182 76.94532058 137.29182 75.74121094 137.40405273 Z " fill="#000000" transform="translate(196.2587890625,31.595947265625)"/>
<path d="M0 0 C1.37045026 -0.00542487 2.74089468 -0.01254958 4.11132812 -0.02124023 C7.82214736 -0.03943355 11.53252041 -0.0324229 15.24334717 -0.01972389 C19.13229549 -0.00957537 23.02120638 -0.0189947 26.91015625 -0.02526855 C33.44017372 -0.03253959 39.97001005 -0.02297163 46.5 -0.00390625 C54.04255185 0.01786159 61.58467116 0.01080982 69.12721252 -0.01121187 C75.61063837 -0.02938147 82.09393423 -0.03191662 88.57737732 -0.0214572 C92.44635098 -0.01523078 96.31512153 -0.01436299 100.18408203 -0.02760315 C103.82206402 -0.03918392 107.45949 -0.03109613 111.09741211 -0.00802612 C113.06428265 -0.00024035 115.03120039 -0.01207597 116.99804688 -0.02453613 C127.73721866 0.0783295 127.73721866 0.0783295 132.5625 4.51757812 C136.19083663 8.33687985 136.87250458 11.40036819 137.0625 16.51757812 C136.87250458 21.63478806 136.19083663 24.6982764 132.5625 28.51757812 C126.80959292 33.81024048 120.62887603 33.08269404 113.125 33.03515625 C111.75454974 33.04058112 110.38410532 33.04770583 109.01367188 33.05639648 C105.30285264 33.0745898 101.59247959 33.06757915 97.88165283 33.05488014 C93.99270451 33.04473162 90.10379362 33.05415095 86.21484375 33.0604248 C79.68482628 33.06769584 73.15498995 33.05812788 66.625 33.0390625 C59.08244815 33.01729466 51.54032884 33.02434643 43.99778748 33.04636812 C37.51436163 33.06453772 31.03106577 33.06707287 24.54762268 33.05661345 C20.67864902 33.05038703 16.80987847 33.04951924 12.94091797 33.0627594 C9.30293598 33.07434017 5.66551 33.06625238 2.02758789 33.04318237 C0.06071735 33.0353966 -1.90620039 33.04723222 -3.87304688 33.05969238 C-14.61221866 32.95682675 -14.61221866 32.95682675 -19.4375 28.51757812 C-23.06583663 24.6982764 -23.74750458 21.63478806 -23.9375 16.51757812 C-23.74750458 11.40036819 -23.06583663 8.33687985 -19.4375 4.51757812 C-13.68459292 -0.77508423 -7.50387603 -0.04753779 0 0 Z " fill="#000000" transform="translate(167.4375,383.482421875)"/>
<path d="M0 0 C1.37045026 -0.00542487 2.74089468 -0.01254958 4.11132812 -0.02124023 C7.82214736 -0.03943355 11.53252041 -0.0324229 15.24334717 -0.01972389 C19.13229549 -0.00957537 23.02120638 -0.0189947 26.91015625 -0.02526855 C33.44017372 -0.03253959 39.97001005 -0.02297163 46.5 -0.00390625 C54.04255185 0.01786159 61.58467116 0.01080982 69.12721252 -0.01121187 C75.61063837 -0.02938147 82.09393423 -0.03191662 88.57737732 -0.0214572 C92.44635098 -0.01523078 96.31512153 -0.01436299 100.18408203 -0.02760315 C103.82206402 -0.03918392 107.45949 -0.03109613 111.09741211 -0.00802612 C113.06428265 -0.00024035 115.03120039 -0.01207597 116.99804688 -0.02453613 C127.73721866 0.0783295 127.73721866 0.0783295 132.5625 4.51757812 C136.19083663 8.33687985 136.87250458 11.40036819 137.0625 16.51757812 C136.87250458 21.63478806 136.19083663 24.6982764 132.5625 28.51757812 C126.80959292 33.81024048 120.62887603 33.08269404 113.125 33.03515625 C111.75454974 33.04058112 110.38410532 33.04770583 109.01367188 33.05639648 C105.30285264 33.0745898 101.59247959 33.06757915 97.88165283 33.05488014 C93.99270451 33.04473162 90.10379362 33.05415095 86.21484375 33.0604248 C79.68482628 33.06769584 73.15498995 33.05812788 66.625 33.0390625 C59.08244815 33.01729466 51.54032884 33.02434643 43.99778748 33.04636812 C37.51436163 33.06453772 31.03106577 33.06707287 24.54762268 33.05661345 C20.67864902 33.05038703 16.80987847 33.04951924 12.94091797 33.0627594 C9.30293598 33.07434017 5.66551 33.06625238 2.02758789 33.04318237 C0.06071735 33.0353966 -1.90620039 33.04723222 -3.87304688 33.05969238 C-14.61221866 32.95682675 -14.61221866 32.95682675 -19.4375 28.51757812 C-23.06583663 24.6982764 -23.74750458 21.63478806 -23.9375 16.51757812 C-23.74750458 11.40036819 -23.06583663 8.33687985 -19.4375 4.51757812 C-13.68459292 -0.77508423 -7.50387603 -0.04753779 0 0 Z " fill="#000000" transform="translate(167.4375,319.482421875)"/>
<path d="M0 0 C1.37045026 -0.00542487 2.74089468 -0.01254958 4.11132812 -0.02124023 C7.82214736 -0.03943355 11.53252041 -0.0324229 15.24334717 -0.01972389 C19.13229549 -0.00957537 23.02120638 -0.0189947 26.91015625 -0.02526855 C33.44017372 -0.03253959 39.97001005 -0.02297163 46.5 -0.00390625 C54.04255185 0.01786159 61.58467116 0.01080982 69.12721252 -0.01121187 C75.61063837 -0.02938147 82.09393423 -0.03191662 88.57737732 -0.0214572 C92.44635098 -0.01523078 96.31512153 -0.01436299 100.18408203 -0.02760315 C103.82206402 -0.03918392 107.45949 -0.03109613 111.09741211 -0.00802612 C113.06428265 -0.00024035 115.03120039 -0.01207597 116.99804688 -0.02453613 C127.73721866 0.0783295 127.73721866 0.0783295 132.5625 4.51757812 C136.19083663 8.33687985 136.87250458 11.40036819 137.0625 16.51757812 C136.87250458 21.63478806 136.19083663 24.6982764 132.5625 28.51757812 C126.80959292 33.81024048 120.62887603 33.08269404 113.125 33.03515625 C111.75454974 33.04058112 110.38410532 33.04770583 109.01367188 33.05639648 C105.30285264 33.0745898 101.59247959 33.06757915 97.88165283 33.05488014 C93.99270451 33.04473162 90.10379362 33.05415095 86.21484375 33.0604248 C79.68482628 33.06769584 73.15498995 33.05812788 66.625 33.0390625 C59.08244815 33.01729466 51.54032884 33.02434643 43.99778748 33.04636812 C37.51436163 33.06453772 31.03106577 33.06707287 24.54762268 33.05661345 C20.67864902 33.05038703 16.80987847 33.04951924 12.94091797 33.0627594 C9.30293598 33.07434017 5.66551 33.06625238 2.02758789 33.04318237 C0.06071735 33.0353966 -1.90620039 33.04723222 -3.87304688 33.05969238 C-14.61221866 32.95682675 -14.61221866 32.95682675 -19.4375 28.51757812 C-23.06583663 24.6982764 -23.74750458 21.63478806 -23.9375 16.51757812 C-23.74750458 11.40036819 -23.06583663 8.33687985 -19.4375 4.51757812 C-13.68459292 -0.77508423 -7.50387603 -0.04753779 0 0 Z " fill="#000000" transform="translate(167.4375,255.482421875)"/>
</svg>
