<?xml version="1.0" encoding="UTF-8"?>
<svg version="1.1" xmlns="http://www.w3.org/2000/svg" width="512" height="512">
<path d="M0 0 C0.86093262 0.18844482 1.72186523 0.37688965 2.60888672 0.57104492 C9.97729139 2.35586189 16.26038598 4.94020928 20.64453125 11.38671875 C23.15389695 15.87710735 24.40586766 20.50085836 25.5 25.5 C25.70713623 26.41579834 25.91427246 27.33159668 26.12768555 28.27514648 C38.93177954 87.33065985 19.72497333 149.82013778 -12.1875 199.6875 C-12.78957275 200.63206055 -12.78957275 200.63206055 -13.40380859 201.59570312 C-17.14474959 207.42120015 -20.90499148 213.17527128 -25.296875 218.53515625 C-25.81000244 219.1782373 -26.32312988 219.82131836 -26.85180664 220.48388672 C-27.83112036 221.69974888 -28.83660865 222.89522204 -29.87280273 224.06298828 C-32.86166446 227.80269335 -33.4217144 230.34157188 -32.92529297 235.10888672 C-32.7608091 236.70717567 -32.7608091 236.70717567 -32.59300232 238.3377533 C-31.92425273 243.8621156 -31.15689666 249.36684567 -30.33984375 254.87109375 C-29.97819282 257.37039602 -29.61687485 259.86974649 -29.25585938 262.36914062 C-28.69128432 266.25099282 -28.12391009 270.13237649 -27.55053711 274.01293945 C-26.99292532 277.79784629 -26.44689332 281.58428853 -25.90234375 285.37109375 C-25.73049057 286.51315781 -25.55863739 287.65522186 -25.38157654 288.83189392 C-22.16242639 311.42543835 -22.16242639 311.42543835 -28.1875 320.6875 C-32.66158593 326.29684991 -37.73339107 331.41504563 -42.7734375 336.51171875 C-43.47465729 337.22101028 -44.17587708 337.93030182 -44.89834595 338.66108704 C-46.37087065 340.14733625 -47.84487854 341.63211734 -49.3203125 343.11547852 C-50.81601969 344.62274878 -52.30723829 346.13448639 -53.79394531 347.65063477 C-55.9647685 349.86430945 -58.1487108 352.06426375 -60.3359375 354.26171875 C-61.31607315 355.26811653 -61.31607315 355.26811653 -62.31600952 356.29484558 C-68.38037394 362.33137599 -75.07906328 367.26070439 -83.87109375 367.75 C-96.67366775 367.40456799 -104.58772347 360.81245812 -113.109375 351.84765625 C-114.56080721 350.35834309 -116.01264156 348.86942175 -117.46484375 347.38085938 C-119.71758001 345.0532625 -121.9651874 342.72108767 -124.20556641 340.3815918 C-126.38967481 338.10724859 -128.59177774 335.85162775 -130.796875 333.59765625 C-131.4646698 332.88948257 -132.1324646 332.1813089 -132.82049561 331.45167542 C-136.20528164 327.74426249 -136.20528164 327.74426249 -140.81762695 326.60351562 C-141.59968506 326.96123047 -142.38174316 327.31894531 -143.1875 327.6875 C-144.04013428 328.0477124 -144.89276855 328.4079248 -145.77124023 328.77905273 C-146.67044189 329.22192627 -147.56964355 329.6647998 -148.49609375 330.12109375 C-149.49060547 330.60513672 -150.48511719 331.08917969 -151.50976562 331.58789062 C-152.53779297 332.09513672 -153.56582031 332.60238281 -154.625 333.125 C-156.66372461 334.12704148 -158.70404547 335.12584304 -160.74609375 336.12109375 C-161.64642334 336.56509521 -162.54675293 337.00909668 -163.47436523 337.46655273 C-168.24628923 339.61398294 -172.43820202 340.96766838 -177.6875 340.9375 C-178.5846875 340.94265625 -179.481875 340.9478125 -180.40625 340.953125 C-183.1875 340.6875 -183.1875 340.6875 -186.00878906 339.51367188 C-190.04078995 338.46572326 -191.25152675 339.18082568 -194.828125 341.203125 C-195.89047363 341.79053467 -196.95282227 342.37794434 -198.04736328 342.9831543 C-199.1661084 343.62808838 -200.28485352 344.27302246 -201.4375 344.9375 C-202.60162057 345.58893144 -203.766833 346.23841537 -204.93310547 346.88598633 C-208.36404129 348.7974924 -211.77600816 350.74149384 -215.1875 352.6875 C-217.80547109 354.16556097 -220.42582484 355.63908123 -223.04980469 357.10644531 C-224.50525541 357.9224274 -225.95679476 358.74544692 -227.40332031 359.57714844 C-238.7119116 365.98739579 -249.17327962 368.10837427 -262.0078125 364.96484375 C-272.89521634 360.59115695 -280.46326649 353.04915538 -288.60546875 344.90625 C-289.87442718 343.64763279 -291.14374669 342.38937953 -292.41340637 341.13146973 C-295.06179426 338.50241994 -297.70215491 335.86560744 -300.33764648 333.22363281 C-303.68770806 329.86758445 -307.06217547 326.53733051 -310.44391918 323.21324921 C-313.07039509 320.62405144 -315.6803706 318.01867929 -318.28618813 315.40870667 C-319.52237861 314.1753567 -320.76406644 312.94748762 -322.0116787 311.72569275 C-332.32990342 301.5987802 -341.06099152 290.84484536 -341.5 275.6875 C-341.14223293 258.7830059 -330.75212923 244.87661247 -322.47753906 230.77294922 C-320.88542142 228.045146 -319.31621857 225.30523036 -317.75 222.5625 C-317.01414673 221.32874634 -317.01414673 221.32874634 -316.26342773 220.07006836 C-313.62038923 215.75668616 -313.62038923 215.75668616 -313.859375 210.9453125 C-314.29765625 210.20023438 -314.7359375 209.45515625 -315.1875 208.6875 C-318.12411363 195.05802607 -308.98755571 179.9102551 -302.0144043 168.68432617 C-300.96660855 166.15408661 -301.27239629 165.23982994 -302.1875 162.6875 C-303.56033546 160.91639274 -303.56033546 160.91639274 -305.34277344 159.27099609 C-306.00726501 158.62286957 -306.67175659 157.97474304 -307.35638428 157.30697632 C-308.07924622 156.61528351 -308.80210815 155.9235907 -309.546875 155.2109375 C-311.07058113 153.72032662 -312.59400968 152.22943197 -314.1171875 150.73828125 C-316.51988241 148.40360561 -318.92644174 146.07315578 -321.33886719 143.74853516 C-323.66938024 141.49717703 -325.98368981 139.23007721 -328.296875 136.9609375 C-329.01164001 136.28139008 -329.72640503 135.60184265 -330.46282959 134.90170288 C-336.2944169 129.15676452 -340.46210004 122.95455858 -341.8515625 114.78125 C-341.83867187 113.5953125 -341.82578125 112.409375 -341.8125 111.1875 C-341.82539063 110.0015625 -341.83828125 108.815625 -341.8515625 107.59375 C-340.18049367 97.76393338 -334.36747442 91.12422438 -327.44921875 84.3203125 C-326.60962112 83.47830292 -325.7700235 82.63629333 -324.90498352 81.76876831 C-323.13842466 80.00318328 -321.365704 78.24374388 -319.5871582 76.49023438 C-316.87743604 73.81490512 -314.19262153 71.11630427 -311.50976562 68.4140625 C-309.7826808 66.69387477 -308.05421106 64.97507615 -306.32421875 63.2578125 C-305.13006599 62.05621994 -305.13006599 62.05621994 -303.91178894 60.83035278 C-295.59785092 52.68873259 -288.25515984 49.4252671 -276.64645386 49.53149414 C-270.43949074 49.81144081 -264.33069903 50.74188516 -258.19140625 51.65625 C-256.78575964 51.85886786 -255.37998998 52.06063361 -253.97410583 52.26159668 C-250.31067069 52.78708734 -246.6486734 53.32194772 -242.98699951 53.85955811 C-237.10415402 54.72197738 -231.21942311 55.57133878 -225.33427238 56.41786194 C-223.29031404 56.71348426 -221.24713186 57.01406865 -219.20399475 57.31530762 C-217.96177658 57.49549438 -216.71955841 57.67568115 -215.43969727 57.86132812 C-214.35004166 58.02121216 -213.26038605 58.18109619 -212.13771057 58.3458252 C-207.1851593 58.91939849 -204.27329297 59.24340976 -200.28125 56.08203125 C-199.18248535 55.23487549 -199.18248535 55.23487549 -198.06152344 54.37060547 C-197.2780957 53.75330566 -196.49466797 53.13600586 -195.6875 52.5 C-141.07566574 10.98612599 -68.67210631 -15.54463685 0 0 Z M-78.1875 32.6875 C-76.91031996 35.48482185 -75.58675856 37.53886707 -73.41687012 39.71209717 C-72.85326279 40.28134415 -72.28965546 40.85059113 -71.70896912 41.43708801 C-71.09280228 42.04920639 -70.47663544 42.66132477 -69.84179688 43.29199219 C-69.19122818 43.94606552 -68.54065948 44.60013885 -67.87037659 45.27403259 C-65.7206694 47.43253599 -63.56373661 49.58364938 -61.40625 51.734375 C-59.91145008 53.23052185 -58.41694718 54.72696551 -56.92272949 56.22369385 C-53.792062 59.35730947 -50.65780605 62.48727957 -47.52099609 65.61474609 C-43.4921713 69.63215692 -39.4724167 73.65850481 -35.45528412 77.687603 C-32.37235589 80.77774135 -29.28470091 83.86312112 -26.1955719 86.94705963 C-24.71087123 88.43042248 -23.22766487 89.91528249 -21.74595642 91.40163422 C-19.67982635 93.47281767 -17.60743867 95.53752437 -15.53320312 97.60058594 C-14.91703629 98.22080124 -14.30086945 98.84101654 -13.66603088 99.48002625 C-10.93500511 102.62486654 -10.93500511 102.62486654 -7.1875 103.6875 C-3.95998091 85.23583427 -1.89393135 67.33902116 -4.0625 48.625 C-4.14089111 47.94743652 -4.21928223 47.26987305 -4.30004883 46.57177734 C-4.91027926 41.82216023 -5.96196992 37.30640959 -7.1875 32.6875 C-31.02556066 27.2260423 -54.2154253 27.70953083 -78.1875 32.6875 Z M-189.1875 89.6875 C-191.0197541 91.16800331 -192.85310539 92.64714969 -194.6875 94.125 C-199.39927929 97.97642587 -203.91714578 102.00384463 -208.38671875 106.1328125 C-210.56295232 108.1178289 -212.76282786 110.05278571 -214.9921875 111.9765625 C-225.98018255 121.56632063 -236.3320768 132.09777069 -245.1875 143.6875 C-246.19953228 144.97213357 -247.21263823 146.2559217 -248.2265625 147.5390625 C-258.28808595 160.36523208 -267.18711815 173.65130155 -274.9375 188 C-275.602052 189.21018799 -275.602052 189.21018799 -276.2800293 190.44482422 C-276.67746338 191.20166504 -277.07489746 191.95850586 -277.484375 192.73828125 C-277.83854492 193.40512939 -278.19271484 194.07197754 -278.55761719 194.7590332 C-279.36990968 197.24597058 -279.08841639 198.23277866 -278.1875 200.6875 C-276.43120364 202.90429117 -276.43120364 202.90429117 -274.15264893 205.12348938 C-273.28342804 206.00550522 -272.41420715 206.88752106 -271.51864624 207.79626465 C-270.54807488 208.76578749 -269.57733557 209.73514222 -268.60644531 210.7043457 C-267.58918953 211.73057802 -266.57255204 212.75742352 -265.55648804 213.78483582 C-262.79503783 216.57279508 -260.02391478 219.35094276 -257.25013828 222.12663293 C-254.93653454 224.44308452 -252.62704059 226.76361352 -250.31733584 229.08395165 C-244.86986748 234.55584743 -239.41388534 240.01915522 -233.953125 245.4777832 C-228.31520331 251.11390073 -222.69424491 256.76655176 -217.08095098 262.42718822 C-212.26354642 267.28377293 -207.43469348 272.12876846 -202.59669948 276.9648425 C-199.70607106 279.85470483 -196.8203248 282.74906705 -193.945961 285.65511513 C-191.24392737 288.38611674 -188.52796761 291.10244242 -185.80049515 293.80803108 C-184.800775 294.8046046 -183.806181 295.80635037 -182.81711197 296.81349564 C-181.46871802 298.1849279 -180.09999979 299.53628964 -178.73028564 300.88642883 C-177.96926167 301.64908711 -177.20823769 302.4117454 -176.42415237 303.19751453 C-174.26383775 304.96964976 -174.26383775 304.96964976 -171.52723312 304.47564983 C-167.70125747 303.18685239 -164.2501075 301.38673346 -160.6875 299.5 C-159.86161377 299.06292725 -159.03572754 298.62585449 -158.18481445 298.17553711 C-133.0796901 284.57624125 -112.11553434 266.62246739 -91.97018433 246.64440918 C-90.96583782 245.64876169 -89.96012791 244.65448719 -88.95291138 243.66174316 C-82.22528165 237.01939107 -76.07022164 230.09027309 -70.1875 222.6875 C-69.11485009 221.39366442 -68.03846748 220.10290695 -66.95703125 218.81640625 C-49.60395308 197.98003545 -35.15130195 175.27170285 -23.1875 150.9375 C-22.74760742 150.06230713 -22.30771484 149.18711426 -21.85449219 148.28540039 C-21.46938477 147.47449951 -21.08427734 146.66359863 -20.6875 145.828125 C-20.3471875 145.12204102 -20.006875 144.41595703 -19.65625 143.68847656 C-19.01740839 140.96142145 -19.76891621 140.07284314 -21.1875 137.6875 C-22.39056478 136.30557899 -23.65032413 134.97214157 -24.94519043 133.67584229 C-25.72756577 132.8878273 -26.5099411 132.09981232 -27.31602478 131.28791809 C-28.17531082 130.43268051 -29.03459686 129.57744293 -29.91992188 128.69628906 C-30.8240834 127.78862289 -31.72824493 126.88095673 -32.6598053 125.94578552 C-35.13647905 123.46000137 -37.61942859 120.98057625 -40.10383034 118.50251865 C-42.70173196 115.90968091 -45.29475002 113.31196672 -47.8885498 110.71502686 C-52.24290837 106.35703109 -56.60146437 102.00326668 -60.96240234 97.65185547 C-66.00923813 92.61591741 -71.04881 87.57279623 -76.08469534 82.52590966 C-80.40632202 78.19521939 -84.73181854 73.86842334 -89.06059885 69.54488349 C-91.64712954 66.96147587 -94.23227791 64.37672399 -96.81394958 61.78845978 C-99.68863614 58.90694542 -102.57139233 56.03364109 -105.45507812 53.16113281 C-106.74400719 51.86613106 -106.74400719 51.86613106 -108.05897522 50.54496765 C-108.84135056 49.76823196 -109.62372589 48.99149628 -110.42980957 48.19122314 C-111.11118233 47.51060444 -111.79255508 46.82998573 -112.4945755 46.12874222 C-124.03845973 36.3010545 -178.76383106 80.89954526 -189.1875 89.6875 Z M-306.1875 110.6875 C-301.36882753 116.49641746 -296.17493592 121.81815552 -290.8125 127.125 C-289.98105469 127.95193359 -289.14960938 128.77886719 -288.29296875 129.63085938 C-286.2600896 131.65205531 -284.22490037 133.67086335 -282.1875 135.6875 C-278.53729905 132.1357757 -275.19191986 128.41900542 -271.9375 124.5 C-267.83835009 119.61021082 -263.66454637 114.80776265 -259.3671875 110.08984375 C-257.87867876 108.44928304 -256.40529001 106.79490846 -254.9453125 105.12890625 C-250.02843975 99.54000418 -244.86985224 94.49667755 -239.1875 89.6875 C-240.08659942 87.3131702 -240.08659942 87.3131702 -243.3449707 86.55712891 C-274.01832874 77.91292559 -287.64701947 85.71606352 -306.1875 110.6875 Z M-288.1875 237.6875 C-288.65124023 238.52933838 -289.11498047 239.37117676 -289.59277344 240.23852539 C-291.32920158 243.39035919 -293.06635232 246.54179425 -294.80371094 249.69311523 C-295.55260314 251.05173212 -296.30130472 252.41045409 -297.04980469 253.76928711 C-298.13164813 255.73319357 -299.21419839 257.69670901 -300.296875 259.66015625 C-300.62621033 260.25836685 -300.95554565 260.85657745 -301.29486084 261.47291565 C-304.0754833 266.51295792 -304.0754833 266.51295792 -305.35461426 268.506073 C-307.59361585 272.01777953 -307.59361585 272.01777953 -308.10534668 276.05403137 C-306.89144006 279.53694968 -304.77034173 281.66447015 -302.19628906 284.19628906 C-301.67748169 284.72210571 -301.15867432 285.24792236 -300.62414551 285.78967285 C-298.91038321 287.52100701 -297.18244115 289.23733667 -295.453125 290.953125 C-294.25525301 292.15369211 -293.05797529 293.35485243 -291.86126709 294.55657959 C-289.35244235 297.07129831 -286.83653346 299.57864813 -284.31542969 302.08105469 C-281.08590233 305.28779305 -277.87466485 308.51215407 -274.66852188 311.74225235 C-272.19989647 314.22533815 -269.72181503 316.69880998 -267.24077606 319.169487 C-266.05291892 320.35467754 -264.86802123 321.54284191 -263.68616486 322.73401642 C-262.03236502 324.3979853 -260.36626395 326.04857539 -258.69628906 327.69628906 C-258.21089661 328.18977844 -257.72550415 328.68326782 -257.22540283 329.19171143 C-254.34782924 331.99869446 -252.24906531 333.46399287 -248.1875 333.6875 C-245.51880736 332.75941542 -245.51880736 332.75941542 -242.87109375 331.1875 C-241.36095703 330.35545044 -241.36095703 330.35545044 -239.8203125 329.5065918 C-238.76585937 328.9062915 -237.71140625 328.30599121 -236.625 327.6875 C-235.55121094 327.09042236 -234.47742188 326.49334473 -233.37109375 325.87817383 C-230.30015763 324.16451507 -227.24139604 322.43130978 -224.1875 320.6875 C-223.43098145 320.25614746 -222.67446289 319.82479492 -221.89501953 319.38037109 C-218.6390095 317.51595745 -215.40048046 315.62515269 -212.1875 313.6875 C-216.32645202 308.75402416 -220.62721777 304.10355053 -225.18676758 299.55883789 C-225.85903381 298.88481934 -226.53130005 298.21080078 -227.22393799 297.51635742 C-229.42414429 295.31178542 -231.62794525 293.11084889 -233.83203125 290.91015625 C-235.36820344 289.37330997 -236.9042272 287.83631532 -238.44010925 286.29917908 C-241.64684583 283.09097311 -244.85537228 279.884571 -248.06518555 276.67944336 C-252.18918529 272.56116941 -256.30864085 268.43838363 -260.4267931 264.31426334 C-263.59127308 261.14618186 -266.75811596 257.98047105 -269.92569542 254.81548882 C-271.44675896 253.29509419 -272.96707497 251.77395133 -274.48664284 250.25206184 C-276.60042832 248.13575349 -278.71736356 246.02264867 -280.83520508 243.91040039 C-281.46738449 243.27619675 -282.0995639 242.6419931 -282.75090027 241.98857117 C-285.09752583 239.06756919 -285.09752583 239.06756919 -288.1875 237.6875 Z M-64.1875 264.6875 C-64.9609375 265.54472656 -65.734375 266.40195312 -66.53125 267.28515625 C-71.52080606 272.77776628 -76.44341852 278.1950163 -82.1484375 282.9609375 C-84.63200629 285.06388272 -86.99300806 287.28275678 -89.375 289.5 C-94.025854 293.76002594 -98.87140204 297.63537893 -103.94799805 301.3762207 C-106.60644343 303.35666232 -108.32373135 304.89184702 -110.1875 307.6875 C-102.2675 315.6075 -94.3475 323.5275 -86.1875 331.6875 C-83.8775 329.7075 -81.5675 327.7275 -79.1875 325.6875 C-77.30464933 324.32254447 -75.41434848 322.96778792 -73.515625 321.625 C-62.57334725 313.36889686 -62.57334725 313.36889686 -56.78735352 301.402771 C-56.05403039 289.65581447 -58.63232276 276.85863829 -62.1875 265.6875 C-62.8475 265.3575 -63.5075 265.0275 -64.1875 264.6875 Z " fill="#000000" transform="translate(456.1875,30.3125)"/>
<path d="M0 0 C15.45766784 12.57541306 24.07983102 27.69436575 28.04150391 47.14257812 C29.75142361 66.97764672 25.50195284 85.74603792 13.35400391 101.76757812 C-0.1770906 117.34309034 -17.68405945 126.45867604 -38.34130859 128.05273438 C-57.64387573 128.51615718 -75.25594375 122.82842885 -89.64599609 109.76757812 C-90.32919922 109.16429687 -91.01240234 108.56101562 -91.71630859 107.93945312 C-104.80780069 95.69417915 -111.51102725 78.52561507 -112.96630859 60.88476562 C-113.49160476 42.98967618 -108.14039142 24.90998992 -96.20849609 11.26757812 C-94.70955853 9.74569764 -93.18934422 8.24440262 -91.64599609 6.76757812 C-90.96021484 6.06246094 -90.27443359 5.35734375 -89.56787109 4.63085938 C-66.76620498 -17.53742713 -25.17679768 -18.85085653 0 0 Z M-72.91943359 35.33007812 C-78.36505725 43.0180174 -80.60573257 52.44442383 -79.64599609 61.76757812 C-77.31664284 73.10563494 -72.4972493 81.86239189 -62.85302734 88.48242188 C-53.05708101 94.1866101 -42.6712106 95.48436452 -31.56005859 93.10742188 C-20.23929496 89.44482188 -13.04555775 82.23889096 -7.64990234 71.84960938 C-3.1183702 62.02767606 -4.10029823 52.85583654 -7.38427734 42.88867188 C-11.11310291 33.66473495 -18.5866418 26.73662074 -27.54052734 22.58007812 C-44.78461469 15.92558802 -61.27174704 21.59416091 -72.91943359 35.33007812 Z " fill="#000000" transform="translate(351.64599609375,145.232421875)"/>
<path d="M0 0 C4.74424521 2.63569178 7.61931493 5.6079448 9.375 10.875 C9.61328125 12.890625 9.61328125 12.890625 9.6875 15.125 C9.74357422 16.21554687 9.74357422 16.21554687 9.80078125 17.328125 C8.5659123 24.71468057 2.83242323 29.84885259 -2.25170898 34.88989258 C-3.0147937 35.65823425 -3.77787842 36.42657593 -4.56408691 37.21820068 C-7.07562113 39.74288421 -9.59790477 42.25649955 -12.12109375 44.76953125 C-13.8750372 46.52549646 -15.62853518 48.28190672 -17.38160706 50.03874207 C-21.05106042 53.71261159 -24.72586848 57.38101672 -28.40454102 61.0456543 C-33.12030748 65.74430438 -37.82239127 70.4562743 -42.52062893 75.1724596 C-46.1362774 78.79894328 -49.75903413 82.41825786 -53.38398933 86.03543663 C-55.12094448 87.77039037 -56.8556734 89.50757584 -58.58813286 91.24701881 C-61.00787205 93.67437048 -63.43700903 96.09190773 -65.86889648 98.50708008 C-66.58334427 99.22760056 -67.29779205 99.94812103 -68.03388977 100.69047546 C-72.86372546 105.45894558 -76.57363146 108.13959133 -83.5625 108.25 C-88.33730817 108.14357783 -90.97221681 107.09292805 -94.625 103.875 C-98.20962449 99.90284854 -99.76420277 96.90846617 -99.875 91.5625 C-99.91367188 90.45455078 -99.91367188 90.45455078 -99.953125 89.32421875 C-99.00248653 82.2283816 -93.97057158 77.78620951 -89.14355469 72.98950195 C-88.38382858 72.2229126 -87.62410248 71.45632324 -86.84135437 70.66650391 C-84.33415479 68.14104085 -81.81606311 65.62678173 -79.296875 63.11328125 C-77.54636559 61.35821 -75.79622849 59.60276733 -74.04644775 57.8469696 C-70.3795712 54.17116289 -66.70707319 50.5010864 -63.03076172 46.8347168 C-58.32349966 42.13894653 -53.63235279 37.42758136 -48.94544601 32.71148396 C-45.33563802 29.08331869 -41.71655299 25.46452051 -38.09470367 21.84837914 C-36.3613054 20.11513412 -34.63100462 18.37878552 -32.90389252 16.6392765 C-30.48675059 14.20723594 -28.05717681 11.78832203 -25.62402344 9.37231445 C-24.91519516 8.65381821 -24.20636688 7.93532196 -23.47605896 7.1950531 C-16.49153227 0.3130432 -9.95697474 -3.09009561 0 0 Z " fill="#000000" transform="translate(133.625,370.125)"/>
<path d="M0 0 C4.75982924 2.62772498 7.04616381 6.26349144 8.75 11.375 C9.33293674 17.3209547 7.97361607 21.45800354 4.75 26.375 C1.41015744 30.2983686 -2.2081307 33.9216596 -5.859375 37.55078125 C-6.91117458 38.60782538 -7.96245552 39.66538582 -9.01324463 40.72343445 C-11.20894856 42.9295006 -13.41190187 45.12799323 -15.62011719 47.3215332 C-18.43742705 50.12163952 -21.23384785 52.94161348 -24.02492905 55.76783466 C-26.18833773 57.95328589 -28.36340982 60.12683171 -30.54199982 62.29714012 C-31.57754719 63.33187216 -32.60930487 64.37041241 -33.6370163 65.41292763 C-44.92641481 76.83992741 -44.92641481 76.83992741 -53.7890625 77.58984375 C-59.8653141 76.78195262 -63.96949134 75.04869981 -68.0625 70.25 C-70.3187775 64.78743341 -71.07546795 59.65310178 -69.04196167 54.04109192 C-67.41362744 50.38104678 -65.24294929 47.8667857 -62.39892578 45.0222168 C-61.91884064 44.53672867 -61.43875549 44.05124054 -60.94412231 43.55104065 C-59.37089087 41.96540647 -57.78374798 40.39461012 -56.1953125 38.82421875 C-55.08990837 37.71865947 -53.98517231 36.61243184 -52.881073 35.50556946 C-50.57234725 33.19546364 -48.25684156 30.89244977 -45.93603516 28.59448242 C-42.96614285 25.6530233 -40.01212756 22.69620316 -37.06279182 19.73414898 C-34.78642001 17.45081461 -32.50272604 15.17492113 -30.21667099 12.90128517 C-29.12460296 11.81372247 -28.0346042 10.72407772 -26.94675064 9.63229942 C-25.42501498 8.10764466 -23.89389958 6.59307534 -22.35986328 5.08081055 C-21.49177032 4.21812057 -20.62367737 3.3554306 -19.72927856 2.46659851 C-13.82978756 -2.51040035 -6.94691746 -3.10476758 0 0 Z " fill="#000000" transform="translate(96.25,332.625)"/>
<path d="M0 0 C3.90320288 3.54011424 6.16155697 7.28184185 7.03515625 12.5234375 C7.29810126 18.49114595 5.27033583 22.57807586 1.46891785 27.04376221 C0.60543228 27.91265076 -0.25805328 28.78153931 -1.14770508 29.67675781 C-1.62618393 30.16209991 -2.10466278 30.64744202 -2.59764099 31.14749146 C-4.1682167 32.73624374 -5.74949639 34.31379125 -7.33203125 35.890625 C-8.43474767 36.99790674 -9.53709274 38.10555843 -10.63908386 39.21356201 C-12.94490129 41.52829194 -15.25628065 43.8372869 -17.5715332 46.14257812 C-20.53239769 49.09193995 -23.47708553 52.05688209 -26.41757679 55.02653885 C-28.68826105 57.31559705 -30.96821421 59.59524365 -33.25095177 61.87227631 C-34.34043695 62.9616085 -35.42683788 64.05403475 -36.5100193 65.14963531 C-38.02695351 66.68150454 -39.55616546 68.19999636 -41.08911133 69.71582031 C-42.38791985 71.01437958 -42.38791985 71.01437958 -43.71296692 72.33917236 C-48.46325664 76.17357796 -53.3132481 77.05811227 -59.3125 76.4375 C-63.71142348 74.98494741 -66.66762804 73.16504786 -69.75 69.6875 C-72.26618943 64.45382598 -72.97557703 59.97000903 -71.48706055 54.39404297 C-69.07272237 47.56332189 -63.62784801 42.9098968 -58.58203125 37.9453125 C-57.50594201 36.86771814 -56.43081882 35.7891583 -55.35661316 34.70968628 C-53.1107234 32.45948233 -50.85469138 30.2201422 -48.59057617 27.98828125 C-45.70140419 25.13891148 -42.8374806 22.26564339 -39.98053455 19.38400459 C-37.7668789 17.15611096 -35.54116732 14.94058416 -33.31162071 12.72860336 C-32.2512546 11.67405166 -31.19438662 10.61596953 -30.14124489 9.55420303 C-21.14225041 0.50610208 -12.78734927 -6.03176852 0 0 Z " fill="#000000" transform="translate(174.3125,409.5625)"/>
</svg>
